<svg width="18" height="25" viewBox="0 0 18 25" fill="none" xmlns="http://www.w3.org/2000/svg">
<path d="M16.8501 16.8233C16.8501 17.293 16.6635 17.7434 16.3314 18.0755C15.9993 18.4077 15.5488 18.5943 15.0791 18.5943C14.6094 18.5943 14.1589 18.4077 13.8268 18.0755C13.4947 17.7434 13.3081 17.293 13.3081 16.8233V13.2813C13.3081 12.8116 13.4947 12.3611 13.8268 12.029C14.1589 11.6968 14.6094 11.5103 15.0791 11.5103C15.5488 11.5103 15.9993 11.6968 16.3314 12.029C16.6635 12.3611 16.8501 12.8116 16.8501 13.2813V16.8233Z" stroke="#5928E5" stroke-width="1.5" stroke-linecap="round" stroke-linejoin="round"/>
<path d="M13.3081 15.6426C13.3081 16.1123 13.1215 16.5627 12.7894 16.8949C12.4573 17.227 12.0068 17.4136 11.5371 17.4136C11.0674 17.4136 10.617 17.227 10.2848 16.8949C9.9527 16.5627 9.76611 16.1123 9.76611 15.6426V12.1016C9.76611 11.6319 9.9527 11.1814 10.2848 10.8493C10.617 10.5172 11.0674 10.3306 11.5371 10.3306C12.0068 10.3306 12.4573 10.5172 12.7894 10.8493C13.1215 11.1814 13.3081 11.6319 13.3081 12.1016V15.6426Z" stroke="#5928E5" stroke-width="1.5" stroke-linecap="round" stroke-linejoin="round"/>
<path d="M6.54395 11.5005L7.55995 2.55046C7.58168 2.32643 7.64733 2.10887 7.75314 1.9102C7.85895 1.71154 8.00286 1.53566 8.17665 1.39261C8.35043 1.24956 8.55069 1.14214 8.76599 1.07649C8.98129 1.01083 9.20741 0.988228 9.43145 1.00996C9.65548 1.0317 9.87304 1.09734 10.0717 1.20316C10.2704 1.30897 10.4462 1.45288 10.5893 1.62666C10.7323 1.80045 10.8398 2.00071 10.9054 2.21601C10.9711 2.4313 10.9937 2.65743 10.9719 2.88146L10.1569 10.9915" stroke="#5928E5" stroke-width="1.5" stroke-linecap="round" stroke-linejoin="round"/>
<path d="M3.1161 11.5004L2.1751 2.87837C2.13161 2.42578 2.26969 1.97444 2.55896 1.62366C2.84824 1.27287 3.26501 1.05136 3.7176 1.00787C4.1702 0.964372 4.62153 1.10245 4.97232 1.39172C5.3231 1.681 5.54461 2.09778 5.5881 2.55037L6.5441 11.4994" stroke="#5928E5" stroke-width="1.5" stroke-linecap="round" stroke-linejoin="round"/>
<path d="M8.25 19.5005C8.25 18.4396 7.82857 17.4222 7.07843 16.6721C6.32828 15.9219 5.31087 15.5005 4.25 15.5005H7.75C8.28043 15.5005 8.78914 15.2898 9.16421 14.9147C9.53929 14.5396 9.75 14.0309 9.75 13.5005C9.75 12.9701 9.53929 12.4613 9.16421 12.0863C8.78914 11.7112 8.28043 11.5005 7.75 11.5005H3C2.46957 11.5005 1.96086 11.7112 1.58579 12.0863C1.21071 12.4613 1 12.9701 1 13.5005V18.5005C0.99991 19.0481 1.14971 19.5853 1.43316 20.0538C1.71661 20.5224 2.12291 20.9044 2.608 21.1585C3.02757 21.3786 3.37901 21.7092 3.62435 22.1146C3.86968 22.52 3.99957 22.9847 4 23.4585V23.4995" stroke="#5928E5" stroke-width="1.5" stroke-linecap="round" stroke-linejoin="round"/>
<path d="M14.7 18.5503C14.625 18.9521 14.4688 19.3345 14.241 19.6739C14.0131 20.0133 13.7185 20.3027 13.375 20.5243C12.8771 20.845 12.4676 21.2855 12.1841 21.8054C11.9005 22.3253 11.752 22.9081 11.752 23.5003" stroke="#5928E5" stroke-width="1.5" stroke-linecap="round" stroke-linejoin="round"/>
</svg>
